<?xml version="1.0" encoding="UTF-8" standalone="no"?>
<svg
   width="26.799"
   height="22.875999"
   viewBox="0 0 23.29235 15.644324"
   version="1.1"
   id="svg4"
   sodipodi:docname="svgviewer-output.svg"
   inkscape:version="1.4.2 (ebf0e940, 2025-05-08)"
   xmlns:inkscape="http://www.inkscape.org/namespaces/inkscape"
   xmlns:sodipodi="http://sodipodi.sourceforge.net/DTD/sodipodi-0.dtd"
   xmlns="http://www.w3.org/2000/svg"
   xmlns:svg="http://www.w3.org/2000/svg">
  <defs
     id="defs4" />
  <sodipodi:namedview
     id="namedview4"
     pagecolor="#ffffff"
     bordercolor="#999999"
     borderopacity="1"
     inkscape:showpageshadow="2"
     inkscape:pageopacity="0"
     inkscape:pagecheckerboard="0"
     inkscape:deskcolor="#d1d1d1"
     showgrid="false"
     inkscape:zoom="33.852737"
     inkscape:cx="11.550026"
     inkscape:cy="6.4839661"
     inkscape:window-width="2520"
     inkscape:window-height="1368"
     inkscape:window-x="40"
     inkscape:window-y="38"
     inkscape:window-maximized="0"
     inkscape:current-layer="g4" />
  <g
     fill="#fff"
     id="g4"
     style="fill:#000000;fill-opacity:1"
     transform="translate(-1.8735867e-4,-1.754995)">
    <g
       id="g5"
       transform="translate(1.7384442,1.3677891)">
      <path
         d="M 4.192,15.53 C 3.562,14.793 3.427,13.667 3.872,12.846 4.277,12.098 4.218,11.71 3.289,9.006 2.352,6.276 2.173,5.956 1.354,5.551 -0.562,4.602 -0.411,2.099 1.596,1.551 3.488,1.033 4.97,2.936 4.014,4.656 c -0.416,0.75 -0.36,1.113 0.593,3.865 0.969,2.796 1.125,3.072 1.964,3.457 1.192,0.548 1.62,1.883 0.969,3.024 -0.65,1.14 -2.566,1.442 -3.348,0.528 z M 6.104,14.527 C 6.569,14.147 6.53,13.731 6.001,13.429 5.763,13.293 5.456,13.243 5.32,13.318 c -0.423,0.23 -0.407,1.014 0.025,1.26 0.226,0.129 0.567,0.106 0.76,-0.05 z M 2.612,4.17 C 2.958,3.981 2.836,3.093 2.432,2.862 2.095,2.67 1.437,3.131 1.452,3.549 1.465,3.935 2.261,4.361 2.612,4.17 Z M 11.945,15 C 11.315,14.263 11.18,13.137 11.625,12.316 12.03,11.568 11.971,11.18 11.042,8.476 10.105,5.746 9.926,5.426 9.107,5.021 7.191,4.072 7.342,1.569 9.349,1.021 c 1.892,-0.518 3.374,1.385 2.418,3.105 -0.416,0.75 -0.36,1.113 0.593,3.865 0.969,2.796 1.125,3.072 1.964,3.457 1.192,0.548 1.62,1.883 0.969,3.024 -0.65,1.14 -2.566,1.442 -3.348,0.528 z m 1.912,-1.003 c 0.465,-0.38 0.426,-0.796 -0.103,-1.098 -0.238,-0.136 -0.545,-0.186 -0.681,-0.111 -0.423,0.23 -0.407,1.014 0.025,1.26 0.226,0.129 0.567,0.106 0.76,-0.05 z M 10.365,3.64 C 10.711,3.451 10.589,2.563 10.185,2.332 9.848,2.14 9.19,2.601 9.205,3.019 c 0.013,0.386 0.809,0.812 1.16,0.621 z"
         id="path1"
         style="fill:#000000;fill-opacity:1" />
      <path
         d="m 4.543,16.22 c -2.027,-1.187 -1.3,-4.185 1.015,-4.185 0.75,0 0.816,-0.177 1.864,-1.169 1.048,-0.992 2.833,-2.627 4.035,-3.221 0.324,0.459 0.571,1.614 0.607,1.748 -0.773,0 -2.75,1.515 -3.588,2.537 -0.81,0.989 -0.985,1.4 -0.928,2.188 0.052,0.73 -0.081,1.111 -0.542,1.54 -0.779,0.729 -1.786,0.958 -2.463,0.562 z m 1.56,-1.695 c 0.215,-0.56 -0.025,-0.902 -0.634,-0.902 -0.594,0 -0.896,0.408 -0.693,0.938 0.198,0.516 1.125,0.49 1.327,-0.036 z m 7.082,-2.465 c 0,0 0.283,-0.565 1.392,-3.717 1.44,-4.077 1.509,-4.406 1.096,-5.263 -0.887,-1.84 0.835,-3.684 2.691,-2.88 0.694,0.3 0.931,0.585 1.236,1.49 0.332,0.983 0.303,1.19 -0.244,1.72 -0.342,0.331 -0.896,0.716 -1.232,0.856 -0.47,0.196 -0.971,1.255 -2.185,4.618 -1.443,3.997 -1.06,2.817 -0.67,3.541 0.961,1.79 -0.26,0.492 -2.084,-0.365 z m 5.066,-9.85 c -0.006,-0.6 -0.355,-0.829 -0.922,-0.605 -0.254,0.101 -0.485,0.309 -0.512,0.462 -0.085,0.474 0.537,0.951 1,0.768 0.241,-0.095 0.437,-0.377 0.434,-0.624 z"
         id="path2"
         style="fill:#000000;fill-opacity:1" />
    </g>
  </g>
</svg>
