<?xml version="1.0" encoding="UTF-8"?><svg id="_图层_1" xmlns="http://www.w3.org/2000/svg" viewBox="0 0 300 300"><defs><style>.cls-1{fill:#686868;}</style></defs><path class="cls-1" d="M138.02,263.23H30.37c-2.21,0-4-1.79-4-4V121.94c0-2.21,1.79-4,4-4h107.65c2.21,0,4,1.79,4,4v137.29c0,2.21-1.79,4-4,4Zm-103.65-8h99.65V125.94H34.37V255.23Z"/><path class="cls-1" d="M269.63,182.06h-107.65c-2.21,0-4-1.79-4-4V40.77c0-2.21,1.79-4,4-4h107.65c2.21,0,4,1.79,4,4V178.06c0,2.21-1.79,4-4,4Zm-103.65-8h99.65V44.77h-99.65V174.06Z"/><path class="cls-1" d="M60.02,93.54c-2.21,0-4-1.79-4-4V57.07c0-2.21,1.79-4,4-4h63.96c2.21,0,4,1.79,4,4s-1.79,4-4,4h-59.96v28.48c0,2.21-1.79,4-4,4Z"/><path class="cls-1" d="M59.91,99.31c-1.02,0-2.05-.39-2.83-1.17l-14.77-14.77c-1.56-1.56-1.56-4.09,0-5.66,1.56-1.56,4.09-1.56,5.66,0l11.94,11.94,12.16-12.16c1.56-1.56,4.1-1.56,5.66,0,1.56,1.56,1.56,4.09,0,5.66l-14.99,14.99c-.78,.78-1.8,1.17-2.83,1.17Z"/><path class="cls-1" d="M241.83,247.29h-70.84c-2.21,0-4-1.79-4-4s1.79-4,4-4h66.84v-28.48c0-2.21,1.79-4,4-4s4,1.79,4,4v32.48c0,2.21-1.79,4-4,4Z"/><path class="cls-1" d="M226.95,224.04c-1.02,0-2.05-.39-2.83-1.17-1.56-1.56-1.56-4.09,0-5.66l14.99-14.99c.75-.75,1.77-1.17,2.83-1.17h0c1.06,0,2.08,.42,2.83,1.17l14.77,14.77c1.56,1.56,1.56,4.09,0,5.66-1.56,1.56-4.1,1.56-5.66,0l-11.94-11.94-12.16,12.16c-.78,.78-1.8,1.17-2.83,1.17Z"/><path class="cls-1" d="M115.5,167.5H52.88c-1.1,0-2-.9-2-2v-22.58c0-1.1,.9-2,2-2h62.62c1.1,0,2,.9,2,2v22.58c0,1.1-.9,2-2,2Zm-60.62-4h58.62v-18.58H54.88v18.58Z"/><path class="cls-1" d="M115.5,190.83H52.88c-1.1,0-2-.9-2-2s.9-2,2-2h62.62c1.1,0,2,.9,2,2s-.9,2-2,2Z"/><path class="cls-1" d="M115.5,203.41H52.88c-1.1,0-2-.9-2-2s.9-2,2-2h62.62c1.1,0,2,.9,2,2s-.9,2-2,2Z"/><path class="cls-1" d="M115.5,215.98H52.88c-1.1,0-2-.9-2-2s.9-2,2-2h62.62c1.1,0,2,.9,2,2s-.9,2-2,2Z"/><path class="cls-1" d="M195.23,77.3h-14.26c-1.1,0-2-.9-2-2v-14.26c0-1.1,.9-2,2-2h14.26c1.1,0,2,.9,2,2v14.26c0,1.1-.9,2-2,2Zm-12.26-4h10.26v-10.26h-10.26v10.26Z"/><path class="cls-1" d="M253.48,65.86h-47.07c-1.1,0-2-.9-2-2s.9-2,2-2h47.07c1.1,0,2,.9,2,2s-.9,2-2,2Z"/><path class="cls-1" d="M253.48,74.49h-47.07c-1.1,0-2-.9-2-2s.9-2,2-2h47.07c1.1,0,2,.9,2,2s-.9,2-2,2Z"/><path class="cls-1" d="M195.23,104.44h-14.26c-1.1,0-2-.9-2-2v-14.26c0-1.1,.9-2,2-2h14.26c1.1,0,2,.9,2,2v14.26c0,1.1-.9,2-2,2Zm-12.26-4h10.26v-10.26h-10.26v10.26Z"/><path class="cls-1" d="M253.48,92.99h-47.07c-1.1,0-2-.9-2-2s.9-2,2-2h47.07c1.1,0,2,.9,2,2s-.9,2-2,2Z"/><path class="cls-1" d="M253.48,101.62h-47.07c-1.1,0-2-.9-2-2s.9-2,2-2h47.07c1.1,0,2,.9,2,2s-.9,2-2,2Z"/><path class="cls-1" d="M195.23,131.58h-14.26c-1.1,0-2-.9-2-2v-14.26c0-1.1,.9-2,2-2h14.26c1.1,0,2,.9,2,2v14.26c0,1.1-.9,2-2,2Zm-12.26-4h10.26v-10.26h-10.26v10.26Z"/><path class="cls-1" d="M253.48,120.13h-47.07c-1.1,0-2-.9-2-2s.9-2,2-2h47.07c1.1,0,2,.9,2,2s-.9,2-2,2Z"/><path class="cls-1" d="M253.48,128.76h-47.07c-1.1,0-2-.9-2-2s.9-2,2-2h47.07c1.1,0,2,.9,2,2s-.9,2-2,2Z"/></svg>