<?xml version="1.0" encoding="UTF-8"?><svg id="_图层_1" xmlns="http://www.w3.org/2000/svg" viewBox="0 0 300 300"><defs><style>.cls-1{fill:#686868;}</style></defs><path class="cls-1" d="M231.84,261.99H124.77c-2.21,0-4-1.79-4-4s1.79-4,4-4h103.06V76.89H50.73v85.6c0,2.21-1.79,4-4,4s-4-1.79-4-4V72.89c0-2.21,1.79-4,4-4H231.84c2.21,0,4,1.79,4,4v185.1c0,2.21-1.79,4-4,4Z"/><path class="cls-1" d="M265.81,228.02h-33.98c-2.21,0-4-1.79-4-4s1.79-4,4-4h29.95l-.96-178.1H83.83l.88,30.86c.06,2.21-1.68,4.05-3.88,4.11-2.2,.07-4.05-1.68-4.11-3.88l-1-34.98c-.03-1.08,.38-2.13,1.13-2.9,.75-.77,1.79-1.21,2.87-1.21h185.1c2.2,0,3.99,1.78,4,3.98l1,186.1c0,1.06-.41,2.09-1.16,2.84-.75,.75-1.77,1.18-2.84,1.18Z"/><path class="cls-1" d="M231.84,115.4H46.73c-1.1,0-2-.9-2-2s.9-2,2-2H231.84c1.1,0,2,.9,2,2s-.9,2-2,2Z"/><path class="cls-1" d="M169.12,94.44H69.15c-1.1,0-2-.9-2-2s.9-2,2-2h99.97c1.1,0,2,.9,2,2s-.9,2-2,2Z"/><path class="cls-1" d="M207.65,102.1h-15.33c-1.1,0-2-.9-2-2v-15.33c0-1.1,.9-2,2-2h15.33c1.1,0,2,.9,2,2v15.33c0,1.1-.9,2-2,2Zm-13.33-4h11.33v-11.33h-11.33v11.33Z"/><path class="cls-1" d="M83.45,270.38h-20.19c-3.2,0-5.9-2.29-6.44-5.45,0-.04-.01-.07-.02-.11l-1.58-11.2c-1.87-.91-3.68-1.97-5.43-3.17l-10.51,4.24c-2.97,1.19-6.42-.01-8.03-2.78l-10.1-17.5c-1.62-2.86-.95-6.37,1.59-8.37l8.91-6.99c-.1-1.13-.14-2.14-.14-3.14s.04-2.01,.14-3.14l-8.91-6.99c-2.57-2.09-3.21-5.6-1.59-8.39l10.09-17.48c1.61-2.77,4.96-3.96,7.96-2.83l10.59,4.27c1.73-1.19,3.55-2.25,5.44-3.17l1.58-11.2s.01-.07,.02-.11c.54-3.16,3.25-5.45,6.44-5.45h20.19c3.14,0,5.86,2.26,6.45,5.37,.01,.06,.02,.13,.03,.19l1.58,11.2c1.87,.91,3.68,1.97,5.43,3.17l10.51-4.24c2.97-1.19,6.42,0,8.03,2.78l10.1,17.5c1.62,2.86,.95,6.37-1.59,8.37l-8.94,7c.1,1.13,.14,2.14,.14,3.14,0,1.1-.06,2.18-.14,3.14l8.91,6.99c2.57,2.09,3.21,5.6,1.59,8.39l-10.09,17.48c-1.61,2.78-4.96,3.96-7.96,2.83l-10.59-4.27c-1.73,1.19-3.55,2.25-5.44,3.17l-1.58,11.19s-.01,.07-.02,.11c-.54,3.16-3.25,5.45-6.44,5.45Zm-18.91-8h17.63l1.71-12.05c.2-1.4,1.12-2.59,2.42-3.13,2.73-1.14,5.3-2.64,7.62-4.44,1.12-.87,2.63-1.08,3.95-.55l11.33,4.57,8.81-15.25-9.62-7.54c-1.11-.87-1.67-2.25-1.5-3.64,.22-1.78,.32-3.15,.32-4.42s-.1-2.64-.32-4.42c-.17-1.4,.4-2.78,1.5-3.65l9.64-7.54-8.8-15.25-11.33,4.57c-1.31,.53-2.81,.33-3.93-.54-2.4-1.84-4.97-3.34-7.64-4.45-1.3-.54-2.22-1.73-2.42-3.13l-1.71-12.05h-17.66l-1.71,12.05c-.2,1.4-1.12,2.59-2.42,3.13-2.73,1.14-5.29,2.63-7.62,4.44-1.12,.87-2.63,1.08-3.95,.55l-11.33-4.57-8.81,15.25,9.62,7.54c1.1,.87,1.67,2.25,1.5,3.64-.22,1.79-.32,3.15-.32,4.43s.1,2.64,.32,4.42c.17,1.39-.4,2.78-1.5,3.64l-9.62,7.54,8.8,15.25,11.33-4.57c1.31-.53,2.81-.33,3.93,.54,2.4,1.84,4.97,3.34,7.64,4.46,1.3,.54,2.22,1.73,2.42,3.13l1.71,12.05Zm54.43-30.09h0Zm-.33-1.87s0,0,0,0h0Zm-90.57-29.02h0s0,0,0,0Z"/><path class="cls-1" d="M73.36,235.57c-10.84,0-19.66-8.82-19.66-19.66s8.82-19.66,19.66-19.66,19.66,8.82,19.66,19.66-8.82,19.66-19.66,19.66Zm0-35.33c-8.64,0-15.66,7.03-15.66,15.66s7.03,15.66,15.66,15.66,15.66-7.03,15.66-15.66-7.03-15.66-15.66-15.66Z"/></svg>