<?xml version="1.0" encoding="UTF-8"?><svg id="_图层_1" xmlns="http://www.w3.org/2000/svg" viewBox="0 0 300 300"><defs><style>.cls-1{fill:#686868;}</style></defs><path class="cls-1" d="M262.12,268.97H37.88c-2.11,0-3.82-1.71-3.82-3.82v-117.69c0-2.11,1.71-3.82,3.82-3.82h224.24c2.11,0,3.82,1.71,3.82,3.82v117.69c0,2.11-1.71,3.82-3.82,3.82Zm-220.43-7.63h216.61v-110.05H41.69v110.05Z"/><path class="cls-1" d="M222.05,129.81H76.62c-.67,0-1.3-.34-1.67-.9-.37-.56-.43-1.27-.16-1.89l6.9-15.94c.32-.73,1.04-1.21,1.84-1.21h5.84c1.1,0,2,.9,2,2s-.9,2-2,2h-4.53l-5.17,11.94H219.07l-4.91-11.94h-4.85c-1.1,0-2-.9-2-2s.9-2,2-2h6.19c.81,0,1.54,.49,1.85,1.24l6.55,15.94c.25,.62,.18,1.32-.19,1.87-.37,.55-.99,.89-1.66,.89Z"/><path class="cls-1" d="M260.35,268.53L36.1,150.84c-.91-.48-1.59-1.3-1.88-2.29-.29-.99-.18-2.05,.32-2.95l28.25-50.67c.67-1.21,1.95-1.96,3.33-1.96h23.23v7.63h-20.99l-25.25,45.3,220.78,115.87-3.55,6.76Z"/><path class="cls-1" d="M39.65,268.53l-3.55-6.76,220.69-115.82-26.78-45.34h-20.71v-7.63h22.88c1.35,0,2.6,.71,3.29,1.88l29.93,50.67c.53,.9,.67,1.98,.38,2.98-.29,1-.97,1.85-1.9,2.33L39.65,268.53Z"/><path class="cls-1" d="M209.31,129.81c-1.1,0-2-.9-2-2v-31.02c0-1.1,.9-2,2-2s2,.9,2,2v31.02c0,1.1-.9,2-2,2Z"/><path class="cls-1" d="M89.36,129.81c-1.1,0-2-.9-2-2V34.85c0-1.1,.9-2,2-2h119.95c1.1,0,2,.9,2,2v61.94c0,1.1-.9,2-2,2s-2-.9-2-2V36.85H91.36V127.81c0,1.1-.9,2-2,2Z"/></svg>