<?xml version="1.0" encoding="UTF-8"?><svg id="_图层_1" xmlns="http://www.w3.org/2000/svg" viewBox="0 0 300 300"><defs><style>.cls-1{fill:#686868;}</style></defs><g><path class="cls-1" d="M257.28,269.17H42.72c-2.21,0-4-1.79-4-4V34.83c0-2.21,1.79-4,4-4H205.77c1.06,0,2.08,.42,2.83,1.17l51.51,51.51c.75,.75,1.17,1.77,1.17,2.83v178.83c0,2.21-1.79,4-4,4Zm-210.56-8H253.28V88l-49.16-49.16H46.72v222.34Z"/><path class="cls-1" d="M257.28,90.34h-51.51c-2.21,0-4-1.79-4-4V34.83c0-2.21,1.79-4,4-4s4,1.79,4,4v47.51h47.51c2.21,0,4,1.79,4,4s-1.79,4-4,4Z"/></g><path class="cls-1" d="M163.62,211.88h-26.76c-1.46,0-2.84-.57-3.88-1.6-1.04-1.06-1.61-2.43-1.61-3.89v-.41c-.02-4.68-.38-9.02-1.03-12.55-.26-1.41-.83-2.8-1.74-4.26-1.37-2.18-3.16-4.06-5.05-6.06l-.51-.54c-2.98-3.11-6.71-6.99-9.57-12.33-3.26-6.09-4.84-13-4.85-21.14,0-9.17,2.92-17.86,8.43-25.14,5.34-7.05,12.92-12.32,21.34-14.84l1-.3c2.36-.61,4.44-1,6.46-1.21,.02,0,.04,0,.07,0l.32-.04c1.43-.14,2.66-.21,3.8-.21,.07,0,.15,0,.22,.01h.03s.03,0,.03,0c.05,0,.09,0,.14,0,1.1,0,2.3,.06,3.77,.2,.04,0,.07,0,.1,.01l.26,.03s.03,0,.05,0c2.08,.22,4.17,.61,6.38,1.19l1.09,.33c8.42,2.52,15.99,7.79,21.33,14.84,5.51,7.29,8.42,15.98,8.42,25.14,0,6.46-.98,12.08-2.99,17.16h0c-2.69,6.77-6.66,11.3-10.5,15.36l-1.02,1.07c-1.48,1.55-2.87,3.01-4.1,4.58-1.75,2.23-2.71,4.13-3.1,6.18-.65,3.51-1.01,7.86-1.02,12.56v.39c-.01,3.03-2.48,5.49-5.5,5.49Zm-17.42-100.29c-1.8,.19-3.68,.54-5.74,1.07l-.92,.28c-7.62,2.28-14.47,7.05-19.3,13.43-4.97,6.57-7.61,14.43-7.61,22.72,0,7.56,1.4,13.68,4.38,19.25,2.61,4.86,6.12,8.52,8.95,11.47l.52,.55c2.03,2.14,3.94,4.17,5.53,6.69,1.18,1.9,1.92,3.74,2.28,5.65,.7,3.76,1.08,8.35,1.1,13.28v.42c0,.42,.14,.76,.44,1.06,.28,.28,.64,.43,1.06,.43h26.76c.83,0,1.49-.66,1.5-1.5v-.39c.02-4.95,.4-9.54,1.09-13.3,.68-3.52,2.54-6.2,3.89-7.91,1.35-1.72,2.81-3.25,4.35-4.87l1.01-1.06c3.58-3.78,7.27-7.97,9.69-14.08,1.82-4.6,2.71-9.73,2.71-15.68,0-8.28-2.63-16.14-7.61-22.73-4.83-6.38-11.68-11.14-19.29-13.42l-1.03-.31c-1.93-.51-3.81-.86-5.67-1.05-.02,0-.04,0-.05,0l-.4-.04s-.03,0-.05,0c-1.27-.12-2.3-.17-3.24-.18h-.14c-.12,.02-.23,.02-.35,0h-.1c-.99,0-2.07,.06-3.3,.18l-.36,.04s-.06,0-.09,0Zm40.81,53.93h0Z"/><path class="cls-1" d="M164.58,222.46h-28.69c-2.11,0-3.82-1.71-3.82-3.82s1.71-3.82,3.82-3.82h28.69c2.11,0,3.82,1.71,3.82,3.82s-1.71,3.82-3.82,3.82Z"/><path class="cls-1" d="M159.75,233.38h-19.03c-2.11,0-3.82-1.71-3.82-3.82s1.71-3.82,3.82-3.82h19.03c2.11,0,3.82,1.71,3.82,3.82s-1.71,3.82-3.82,3.82Z"/><path class="cls-1" d="M150.23,99.58c-1.1,0-2-.9-2-2v-12.97c0-1.1,.9-2,2-2s2,.9,2,2v12.97c0,1.1-.9,2-2,2Z"/><path class="cls-1" d="M112.98,112.63c-.51,0-1.02-.2-1.41-.59l-9.17-9.17c-.78-.78-.78-2.05,0-2.83,.78-.78,2.05-.78,2.83,0l9.17,9.17c.78,.78,.78,2.05,0,2.83-.39,.39-.9,.59-1.41,.59Z"/><path class="cls-1" d="M97.71,149.31h-12.97c-1.1,0-2-.9-2-2s.9-2,2-2h12.97c1.1,0,2,.9,2,2s-.9,2-2,2Z"/><path class="cls-1" d="M215.26,149.31h-12.97c-1.1,0-2-.9-2-2s.9-2,2-2h12.97c1.1,0,2,.9,2,2s-.9,2-2,2Z"/><path class="cls-1" d="M186.91,112.63c-.51,0-1.02-.2-1.41-.59-.78-.78-.78-2.05,0-2.83l9.17-9.17c.78-.78,2.05-.78,2.83,0,.78,.78,.78,2.05,0,2.83l-9.17,9.17c-.39,.39-.9,.59-1.41,.59Z"/><path class="cls-1" d="M103.8,196.8c-.51,0-1.02-.2-1.41-.59-.78-.78-.78-2.05,0-2.83l9.17-9.17c.78-.78,2.05-.78,2.83,0s.78,2.05,0,2.83l-9.17,9.17c-.39,.39-.9,.59-1.41,.59Z"/><path class="cls-1" d="M196.08,196.8c-.51,0-1.02-.2-1.41-.59l-9.17-9.17c-.78-.78-.78-2.05,0-2.83s2.05-.78,2.83,0l9.17,9.17c.78,.78,.78,2.05,0,2.83-.39,.39-.9,.59-1.41,.59Z"/><path class="cls-1" d="M150.23,211.88c-1.1,0-2-.9-2-2v-38.28l-9.59-9.59c-.78-.78-.78-2.05,0-2.83s2.05-.78,2.83,0l10.17,10.17c.38,.38,.58,.88,.58,1.41v39.11c0,1.1-.89,2-2,2Z"/><path class="cls-1" d="M150.23,172.77c-.51,0-1.02-.2-1.41-.59-.78-.78-.78-2.05,0-2.83l11.15-11.15c.78-.78,2.05-.78,2.83,0s.78,2.05,0,2.83l-11.15,11.15c-.39,.39-.9,.59-1.41,.59Z"/></svg>