<?xml version="1.0" encoding="UTF-8"?><svg id="_图层_1" xmlns="http://www.w3.org/2000/svg" viewBox="0 0 300 300"><defs><style>.cls-1{fill:#686868;}</style></defs><path class="cls-1" d="M150,245.03c-48.54,0-88.03-39.49-88.03-88.03s39.49-88.03,88.03-88.03,88.03,39.49,88.03,88.03-39.49,88.03-88.03,88.03Zm0-168.05c-44.13,0-80.03,35.9-80.03,80.03s35.9,80.03,80.03,80.03,80.03-35.9,80.03-80.03-35.9-80.03-80.03-80.03Z"/><g><path class="cls-1" d="M139.39,242.31c-.63,0-1.25-.3-1.62-.87-16.67-25.04-25.48-54.24-25.48-84.44s9.01-60.07,26.05-85.3c.6-.89,1.81-1.12,2.7-.52,.89,.6,1.12,1.81,.52,2.7-16.61,24.58-25.39,53.33-25.39,83.12s8.59,57.89,24.83,82.29c.6,.89,.35,2.1-.54,2.7-.33,.22-.71,.33-1.08,.33Z"/><path class="cls-1" d="M160.61,242.31c-.37,0-.74-.11-1.08-.33-.89-.59-1.14-1.8-.54-2.7,16.24-24.4,24.83-52.85,24.83-82.29s-8.59-57.89-24.83-82.29c-.6-.89-.35-2.1,.54-2.7,.89-.6,2.1-.35,2.7,.54,16.67,25.04,25.48,54.24,25.48,84.44s-8.81,59.4-25.48,84.44c-.37,.56-.99,.87-1.62,.87Z"/></g><path class="cls-1" d="M42.82,207.4c-.74,0-1.45-.42-1.77-1.14-7.03-15.52-10.59-32.09-10.59-49.26,0-60.92,45.58-111.99,106.04-118.78,1.06-.11,2.03,.65,2.15,1.72,.12,1.07-.65,2.03-1.72,2.15-58.48,6.58-102.58,55.98-102.58,114.92,0,16.61,3.45,32.64,10.24,47.65,.44,.98,0,2.13-.97,2.57-.26,.12-.53,.17-.8,.17Z"/><path class="cls-1" d="M257.18,207.4c-.27,0-.54-.06-.8-.17-.98-.44-1.41-1.6-.97-2.57,6.8-15.01,10.24-31.04,10.24-47.65,0-58.95-44.11-108.36-102.61-114.92-1.07-.12-1.83-1.08-1.72-2.15,.12-1.07,1.08-1.83,2.15-1.72,60.46,6.79,106.06,57.85,106.06,118.79,0,17.17-3.56,33.74-10.59,49.26-.33,.72-1.03,1.14-1.77,1.14Z"/><path class="cls-1" d="M150,276.54c-37.64,0-72.32-17.2-95.16-47.18-.65-.85-.49-2.07,.37-2.72,.85-.65,2.07-.49,2.72,.37,22.09,29.01,55.65,45.64,92.06,45.64s69.97-16.64,92.06-45.64c.65-.86,1.87-1.02,2.72-.37,.85,.65,1.02,1.87,.37,2.72-22.83,29.98-57.52,47.18-95.16,47.18Z"/><path class="cls-1" d="M150,58.27c-9.53,0-17.29-7.75-17.29-17.29s7.75-17.29,17.29-17.29,17.29,7.75,17.29,17.29-7.75,17.29-17.29,17.29Zm0-26.57c-5.12,0-9.29,4.17-9.29,9.29s4.17,9.29,9.29,9.29,9.29-4.17,9.29-9.29-4.17-9.29-9.29-9.29Z"/><path class="cls-1" d="M48.6,234.71c-9.53,0-17.29-7.75-17.29-17.29s7.75-17.29,17.29-17.29,17.29,7.75,17.29,17.29-7.75,17.29-17.29,17.29Zm0-26.57c-5.12,0-9.29,4.17-9.29,9.29s4.17,9.29,9.29,9.29,9.29-4.17,9.29-9.29-4.17-9.29-9.29-9.29Z"/><path class="cls-1" d="M251.4,234.71c-9.53,0-17.29-7.75-17.29-17.29s7.75-17.29,17.29-17.29,17.29,7.75,17.29,17.29-7.75,17.29-17.29,17.29Zm0-26.57c-5.12,0-9.29,4.17-9.29,9.29s4.17,9.29,9.29,9.29,9.29-4.17,9.29-9.29-4.17-9.29-9.29-9.29Z"/><path class="cls-1" d="M224.01,119.12H75.99c-1.07,0-1.94-.87-1.94-1.94s.87-1.94,1.94-1.94H224.01c1.07,0,1.94,.87,1.94,1.94s-.87,1.94-1.94,1.94Z"/><path class="cls-1" d="M224.01,199.86H75.99c-1.07,0-1.94-.87-1.94-1.94s.87-1.94,1.94-1.94H224.01c1.07,0,1.94,.87,1.94,1.94s-.87,1.94-1.94,1.94Z"/><path class="cls-1" d="M234.03,158.94H65.97c-1.07,0-1.94-.87-1.94-1.94s.87-1.94,1.94-1.94H234.03c1.07,0,1.94,.87,1.94,1.94s-.87,1.94-1.94,1.94Z"/></svg>