<?xml version="1.0" encoding="UTF-8"?><svg id="_图层_1" xmlns="http://www.w3.org/2000/svg" viewBox="0 0 300 300"><defs><style>.cls-1{fill:#fff;}.cls-2{fill:#686868;}</style></defs><path class="cls-2" d="M150,242.99c-2.21,0-4-1.79-4-4V81.58c0-12.16-9.89-22.04-22.04-22.04H29.47V212.94c0,2.21-1.79,4-4,4s-4-1.79-4-4V55.54c0-2.21,1.79-4,4-4H123.96c16.57,0,30.04,13.48,30.04,30.04V238.99c0,2.21-1.79,4-4,4Z"/><path class="cls-2" d="M150,242.99c-2.21,0-4-1.79-4-4,0-12.16-9.89-22.04-22.04-22.04H25.47c-2.21,0-4-1.79-4-4s1.79-4,4-4H123.96c16.57,0,30.04,13.48,30.04,30.04,0,2.21-1.79,4-4,4Z"/><path class="cls-2" d="M150,254.01c-1.1,0-2-.9-2-2,0-13.26-10.79-24.04-24.04-24.04H25.47c-1.1,0-2-.9-2-2s.9-2,2-2H123.96c15.46,0,28.04,12.58,28.04,28.04,0,1.1-.9,2-2,2Z"/><path class="cls-2" d="M154,238.99h-8V81.58c0-16.57,13.48-30.04,30.04-30.04h28.06v8h-28.06c-12.16,0-22.04,9.89-22.04,22.04V238.99Z"/><path class="cls-2" d="M278.53,212.94h-8V59.54h-44.96v-8h48.96c2.21,0,4,1.79,4,4V212.94Z"/><path class="cls-2" d="M150,242.99c-2.21,0-4-1.79-4-4,0-16.57,13.48-30.04,30.04-30.04h98.49c2.21,0,4,1.79,4,4s-1.79,4-4,4h-98.49c-12.16,0-22.04,9.89-22.04,22.04,0,2.21-1.79,4-4,4Z"/><path class="cls-2" d="M150,254.01c-1.1,0-2-.9-2-2,0-15.46,12.58-28.04,28.04-28.04h98.49c1.1,0,2,.9,2,2s-.9,2-2,2h-98.49c-13.26,0-24.04,10.79-24.04,24.04,0,1.1-.9,2-2,2Z"/><path class="cls-2" d="M149.14,258.28c-.89,0-1.7-.59-1.93-1.49-2.77-10.54-12.34-17.91-23.25-17.91H25.47c-1.1,0-2-.9-2-2s.9-2,2-2H123.96c12.73,0,23.89,8.59,27.12,20.89,.28,1.07-.36,2.16-1.43,2.44-.17,.04-.34,.07-.51,.07Z"/><path class="cls-2" d="M150.86,258.28c-.17,0-.34-.02-.51-.07-1.07-.28-1.71-1.38-1.43-2.44,3.24-12.3,14.39-20.89,27.12-20.89h98.49c1.1,0,2,.9,2,2s-.9,2-2,2h-98.49c-10.92,0-20.48,7.36-23.25,17.91-.24,.9-1.05,1.49-1.93,1.49Z"/><path class="cls-2" d="M173.38,259.13h-46.76c-2.21,0-4-1.79-4-4s1.79-4,4-4h46.76c2.21,0,4,1.79,4,4s-1.79,4-4,4Z"/><g><path class="cls-2" d="M225.58,181.35h-21.47c-1.1,0-2-.9-2-2V48.59c0-3.79,3.08-6.87,6.87-6.87h11.78c3.77,0,6.83,3.06,6.83,6.83V179.35c0,1.1-.9,2-2,2Zm-19.47-4h17.47V48.55c0-1.56-1.27-2.83-2.83-2.83h-11.78c-1.58,0-2.87,1.29-2.87,2.87V177.35Z"/><path class="cls-2" d="M214.84,198.8c-.69,0-1.34-.36-1.7-.95l-10.74-17.45c-.38-.62-.4-1.39-.04-2.02,.35-.63,1.02-1.02,1.75-1.02h21.47c.72,0,1.39,.39,1.75,1.02,.35,.63,.34,1.41-.04,2.02l-10.74,17.45c-.36,.59-1.01,.95-1.7,.95Zm-7.16-17.45l7.16,11.64,7.16-11.64h-14.32Z"/><g><line class="cls-1" x1="204.1" y1="56.9" x2="225.58" y2="56.9"/><path class="cls-2" d="M225.58,58.9h-21.47c-1.1,0-2-.9-2-2s.9-2,2-2h21.47c1.1,0,2,.9,2,2s-.9,2-2,2Z"/></g></g><path class="cls-2" d="M90.23,76.7H47.72c-1.1,0-2-.9-2-2s.9-2,2-2h42.5c1.1,0,2,.9,2,2s-.9,2-2,2Z"/><path class="cls-2" d="M126.62,101.57H47.72c-1.1,0-2-.9-2-2s.9-2,2-2H126.62c1.1,0,2,.9,2,2s-.9,2-2,2Z"/><path class="cls-2" d="M126.62,113.53H47.72c-1.1,0-2-.9-2-2s.9-2,2-2H126.62c1.1,0,2,.9,2,2s-.9,2-2,2Z"/><path class="cls-2" d="M126.62,125.5H47.72c-1.1,0-2-.9-2-2s.9-2,2-2H126.62c1.1,0,2,.9,2,2s-.9,2-2,2Z"/><path class="cls-2" d="M90.23,137.46H47.72c-1.1,0-2-.9-2-2s.9-2,2-2h42.5c1.1,0,2,.9,2,2s-.9,2-2,2Z"/></svg>